<?xml version="1.0" encoding="UTF-8"?>
<svg width="24px" height="24px" viewBox="0 0 24 24" version="1.1" xmlns="http://www.w3.org/2000/svg" xmlns:xlink="http://www.w3.org/1999/xlink">
    <!-- Generator: sketchtool 57.1 (101010) - https://sketch.com -->
    <title>3DE8CDF3-095F-4AA3-A2A5-DD2FC0158FED@1.00x</title>
    <desc>Created with sketchtool.</desc>
    <g id="Tropical-Example-App-v2" stroke="none" stroke-width="1" fill="none" fill-rule="evenodd">
        <g id="Tropical-Property-View-Dialogue-Copy" transform="translate(-967.000000, -169.000000)" fill="#C6CFD7" fill-rule="nonzero">
            <g id="leave" transform="translate(967.000000, 169.000000)">
                <path d="M8.13026087,5.33165217 L0.825913043,0.0980869565 C0.666996779,-0.0159455166 0.457648746,-0.0315142852 0.283613193,0.0577572682 C0.10957764,0.147028822 9.23356578e-05,0.326143181 0,0.52173913 L0,18.2608696 C0.000152193449,18.4292533 0.0815604731,18.5872126 0.218608696,18.6850435 L7.52295652,23.9024348 C7.68193201,24.0159186 7.89097984,24.0311 8.06468363,23.9417761 C8.23838742,23.8524521 8.34764966,23.6735856 8.34782609,23.4782609 L8.34782609,5.75530435 C8.34782609,5.58729392 8.26676469,5.42960225 8.13026087,5.33165217 Z" id="Path"></path>
                <path d="M14.6086957,0.52173913 C14.6086957,0.233590565 14.3751051,0 14.0869565,0 L2.48034783,0 L8.73756522,4.48330435 C9.14777051,4.77714303 9.39116131,5.25071587 9.39130435,5.75530435 L9.39130435,18.7826087 L14.0869565,18.7826087 C14.3751051,18.7826087 14.6086957,18.5490181 14.6086957,18.2608696 L14.6086957,0.52173913 Z" id="Path"></path>
                <path d="M23.7986087,8.97965217 L19.1029565,5.32747826 C18.9456889,5.20513996 18.7324754,5.18305438 18.5534712,5.27056017 C18.374467,5.35806595 18.2609305,5.53988242 18.2608696,5.73913043 L18.2608696,8.34782609 L15.6521739,8.34782609 L15.6521739,10.4347826 L18.2608696,10.4347826 L18.2608696,13.0434783 C18.2609305,13.2427263 18.374467,13.4245427 18.5534712,13.5120485 C18.7324754,13.5995543 18.9456889,13.5774687 19.1029565,13.4551304 L23.7986087,9.80295652 C23.9255577,9.7041015 23.9997949,9.55220298 23.9997949,9.39130435 C23.9997949,9.23040572 23.9255577,9.0785072 23.7986087,8.97965217 Z" id="Path"></path>
            </g>
        </g>
    </g>
</svg>