<svg xmlns="http://www.w3.org/2000/svg" viewBox="0 0 197.95 49.35"><defs><style>.cls-1{fill:#fff;}</style></defs><title>Tropical logo updated</title><g id="Layer_2" data-name="Layer 2"><g id="Illo"><path class="cls-1" d="M64.84,12.52,63.7,18.66H68l-1,5.41H62.64l-1.39,7A14.22,14.22,0,0,0,61,33.24,1.56,1.56,0,0,0,62.76,35c.48,0,1.12,0,1.73-.06l-.94,5.63a14.48,14.48,0,0,1-4.08.47c-4,0-6-2-6-5a19.21,19.21,0,0,1,.42-3.8l1.58-8.14H52.86l1-5.41h2.63l.85-4.44Z"/><path class="cls-1" d="M67.07,40.6,69.6,27.3c.58-3.14.87-6.69,1.13-8.64H77c-.09,1.37-.18,2.74-.32,4.11h.16c1.62-2.85,4-4.56,6.59-4.56a11.28,11.28,0,0,1,1.19.06l-1.41,7.15c-.27,0-.69-.05-1-.05-3.8,0-5.53,3.17-6.27,7.12L74.37,40.6Z"/><path class="cls-1" d="M106,26.9c0,8.2-5.27,14.15-12.64,14.15-5.78,0-8.93-3.79-8.93-8.65,0-7.82,5.14-14.19,12.79-14.19C103.15,18.21,106,22.35,106,26.9ZM91.89,32.24c0,1.86.7,3.3,2.43,3.3,2.82,0,4.24-5.45,4.24-8.85,0-1.61-.63-3-2.36-3C93.33,23.72,91.87,29.29,91.89,32.24Z"/><path class="cls-1" d="M105.64,49.35l4.27-22.45c.47-2.5,1-6,1.26-8.24h6.42l-.3,2.87h.09a7.92,7.92,0,0,1,6.29-3.32c4.59,0,6.52,3.75,6.52,8.05,0,7.56-4.64,14.79-12,14.79a7.42,7.42,0,0,1-3.47-.75h-.11l-1.73,9.05Zm10.07-14.54a3,3,0,0,0,2.08.79c2.82,0,4.8-5,4.8-8.58,0-1.41-.47-2.84-2-2.84-1.87,0-3.38,2.21-3.94,5.29Z"/><path class="cls-1" d="M131.42,40.6l4.17-21.94h7.3L138.72,40.6ZM136.65,13a4,4,0,0,1,4-4.07,3.28,3.28,0,0,1,3.48,3.45A3.93,3.93,0,0,1,140,16.41,3.2,3.2,0,0,1,136.65,13Z"/><path class="cls-1" d="M158.66,40.08a14.08,14.08,0,0,1-5.53.93c-5.23,0-8.87-3.36-8.87-8.83a13.5,13.5,0,0,1,13.91-13.93,12.07,12.07,0,0,1,4,.57l-1.74,5.65a7.36,7.36,0,0,0-2.33-.36c-3.71,0-6.27,3.27-6.27,7.21,0,2.63,1.66,3.85,3.43,3.85a10.44,10.44,0,0,0,3.64-.68Z"/><path class="cls-1" d="M174.37,40.6c.07-1.23.14-2.46.18-3.69h-.13a7.5,7.5,0,0,1-6.49,4.14c-3.8,0-6.25-3-6.25-7.48,0-7.09,4.19-15.36,15-15.36a25.43,25.43,0,0,1,7.43,1.15L181.8,31a56.49,56.49,0,0,0-.87,9.58ZM176,23.79a7.39,7.39,0,0,0-1.3-.13c-3.43,0-5.57,5.45-5.57,8.46,0,1.89.67,3.05,2,3.05s3-1.49,3.85-6.26Z"/><path class="cls-1" d="M184.65,40.6l6-31.42H198L192,40.6Z"/><path class="cls-1" d="M32.42,16.22H43.23C39,7.5,29.28,8.55,29.28,8.55L36.6.88c-10.8-3.49-15,4.53-15,4.53s-4.18-8-15-4.53l7.32,7.67S4.18,7.5,0,16.22H10.81S5.23,21.1,8.37,29.46l10.8-10.8V45.5h4.88V18.66l10.81,10.8C38,21.1,32.42,16.22,32.42,16.22Z"/></g></g></svg>