<?xml version="1.0" encoding="UTF-8"?>
<svg width="18px" height="22px" viewBox="0 0 18 22" version="1.1" xmlns="http://www.w3.org/2000/svg" xmlns:xlink="http://www.w3.org/1999/xlink">
    <!-- Generator: sketchtool 57.1 (101010) - https://sketch.com -->
    <title>14536D85-CEDC-4C6C-8B03-BC3107F83C9F@1.00x</title>
    <desc>Created with sketchtool.</desc>
    <g id="Tropical-Example-App-v2" stroke="none" stroke-width="1" fill="none" fill-rule="evenodd">
        <g id="Tropical-Property-View-Dialogue-Copy" transform="translate(-444.000000, -626.000000)" fill="#FFFFFF" fill-rule="nonzero">
            <g id="Property-1-Copy-8" transform="translate(199.000000, 544.000000)">
                <g id="Group-2" transform="translate(200.000000, 72.000000)">
                    <g id="money-bag" transform="translate(45.000000, 10.000000)">
                        <path d="M5.07530435,5.73913043 L8.13043478,5.73913043 L8.13043478,3.34782609 C8.13043478,3.08382609 8.34469565,2.86956522 8.60869565,2.86956522 C8.87269565,2.86956522 9.08695652,3.08382609 9.08695652,3.34782609 L9.08695652,5.73913043 L12.142087,5.73913043 L13.8451739,0.629391304 C13.8939565,0.483521739 13.869087,0.323304348 13.7791739,0.198478261 C13.6892609,0.0736521739 13.5448261,0 13.3913043,0 L3.82608696,0 C3.67256522,0 3.52813043,0.0736521739 3.43821739,0.198956522 C3.34830435,0.323782609 3.32391304,0.484 3.37221739,0.629869565 L5.07530435,5.73913043 Z" id="Path"></path>
                        <path d="M12.2305652,6.69565217 L16.8496087,16.5497391 C17.4082174,17.7415652 17.3202174,19.116087 16.6143043,20.2261304 C15.9083913,21.3366522 14.7012609,21.9995217 13.3855652,21.9995217 L13.3855652,21.9995217 L3.83182609,21.9995217 C2.51613043,21.9995217 1.309,21.3366522 0.603086957,20.2261304 C-0.102826087,19.1156087 -0.190826087,17.741087 0.367782609,16.5497391 L0.367782609,16.5497391 L4.98682609,6.69565217 L12.2305652,6.69565217 Z M8.80273646,9.5 C8.52659409,9.5 8.30273646,9.72385763 8.30273646,10 L8.30273646,10 L8.30132045,10.9000398 C8.27914446,10.9011217 8.25705517,10.9023066 8.23505844,10.9035956 C6.60913056,10.9988737 5.52254963,11.6250061 5.52254963,12.8932501 C5.52254963,14.2024028 6.32267594,14.7289672 8.30229449,15.2887463 L8.30229449,15.2887463 L8.30388627,17.8877635 C7.47068139,17.8640707 6.52415043,17.7051049 5.63660955,17.4431598 C5.37176119,17.3649936 5.09369294,17.5163294 5.01552672,17.7811778 C4.93736051,18.0460261 5.08869629,18.3240944 5.35354465,18.4022606 C6.32878374,18.6900885 7.36867852,18.864668 8.30352166,18.8881069 L8.30352166,18.8881069 L8.30273646,19.7745609 L8.31079213,19.8644366 C8.35312809,20.0976858 8.55727657,20.2745609 8.80273646,20.2745609 C9.07887884,20.2745609 9.30273646,20.0507033 9.30273646,19.7745609 L9.30273646,19.7745609 L9.30308221,18.8485855 C9.31781732,18.8468961 9.3324995,18.8451548 9.34712781,18.8433614 C10.8488871,18.6592535 11.7972749,17.9264567 11.7972749,16.629402 C11.7972749,15.4896192 11.1221066,15.0474602 9.30388793,14.5281127 L9.30388793,14.5281127 L9.30228788,11.9172502 C10.0762999,11.9783756 10.8416632,12.1417461 11.2900789,12.3433155 C11.5419449,12.4565328 11.8379033,12.344136 11.9511207,12.09227 C12.064338,11.8404041 11.9519412,11.5444456 11.7000753,11.4312283 C11.1269893,11.1736179 10.2133516,10.9789157 9.30237004,10.9143903 L9.30237004,10.9143903 L9.30273646,10 L9.29468079,9.91012437 C9.25234483,9.67687516 9.04819635,9.5 8.80273646,9.5 Z M9.30341942,15.5707735 C10.4281064,15.914095 10.7972749,16.1824828 10.7972749,16.629402 C10.7972749,17.3066187 10.3088319,17.7010015 9.30397187,17.8405353 L9.30397187,17.8405353 Z M8.30194637,11.901 L8.30081518,14.2467612 C6.97924149,13.8493794 6.52254963,13.5119011 6.52254963,12.8932501 C6.52254963,12.3195872 7.12900093,11.9701252 8.30194637,11.901 L8.30194637,11.901 Z" id="Combined-Shape"></path>
                    </g>
                </g>
            </g>
        </g>
    </g>
</svg>