<?xml version="1.0" encoding="UTF-8"?>
<svg width="21px" height="24px" viewBox="0 0 21 24" version="1.1" xmlns="http://www.w3.org/2000/svg" xmlns:xlink="http://www.w3.org/1999/xlink">
    <!-- Generator: sketchtool 57.1 (101010) - https://sketch.com -->
    <title>98DDC0C7-B6EC-435F-B2BD-E0E1A8452FB7@1.00x</title>
    <desc>Created with sketchtool.</desc>
    <g id="Tropical-Example-App-v2" stroke="none" stroke-width="1" fill="none" fill-rule="evenodd">
        <g id="Tropical-Property-View-Dialogue-Copy" transform="translate(-967.000000, -116.000000)" fill="#C6CFD7" fill-rule="nonzero">
            <g id="privacy" transform="translate(967.000000, 116.000000)">
                <path d="M20.3001818,2.19436364 L10.482,0.0125454545 C10.4039973,-0.0043685645 10.3232754,-0.0043685645 10.2452727,0.0125454545 L0.427090909,2.19436364 C0.177377846,2.249874 -0.000211891332,2.47146426 -1.89410125e-07,2.72727273 L-1.89410125e-07,13.6363636 C-1.89410125e-07,19.360042 4.63995805,24 10.3636364,24 C16.0873147,24 20.7272729,19.360042 20.7272729,13.6363636 L20.7272729,2.72727273 C20.7274846,2.47146426 20.5498949,2.249874 20.3001818,2.19436364 Z M15.2727273,16.9090909 C15.2727273,17.2103371 15.028519,17.4545455 14.7272727,17.4545455 L6,17.4545455 C5.69875377,17.4545455 5.45454545,17.2103371 5.45454545,16.9090909 L5.45454545,11.4545455 C5.45454545,11.1532992 5.69875377,10.9090909 6,10.9090909 L7.63636364,10.9090909 L7.63636364,8.18181818 C7.63636364,6.67558705 8.85740523,5.45454545 10.3636364,5.45454545 C11.8698675,5.45454545 13.0909091,6.67558705 13.0909091,8.18181818 L13.0909091,10.9090909 L14.7272727,10.9090909 C15.028519,10.9090909 15.2727273,11.1532992 15.2727273,11.4545455 L15.2727273,16.9090909 Z" id="Shape"></path>
                <path d="M10.3636364,6.54545455 C9.45989768,6.54545455 8.72727273,7.2780795 8.72727273,8.18181818 L8.72727273,10.9090909 L12,10.9090909 L12,8.18181818 C12,7.2780795 11.267375,6.54545455 10.3636364,6.54545455 Z" id="Path"></path>
                <circle id="Oval" cx="10.3636364" cy="14.1818182" r="1.09090909"></circle>
            </g>
        </g>
    </g>
</svg>