<svg width="169px" height="113px" viewBox="0 0 169 113" version="1.1" xmlns="http://www.w3.org/2000/svg" xmlns:xlink="http://www.w3.org/1999/xlink">
    <defs>
        <rect id="path-1" x="0" y="0" width="169" height="113" rx="4"></rect>
    </defs>
    <g id="Page-1" stroke="none" stroke-width="1" fill="none" fill-rule="evenodd">
        <g id="Tropical-Property-View-Dialogue-Copy" transform="translate(-200.000000, -372.000000)">
            <g id="Property-1-Copy-11" transform="translate(199.000000, 372.000000)">
                <g id="Path-3" transform="translate(1.000000, 0.000000)">
                    <mask id="mask-2" fill="white">
                        <use xlink:href="#path-1"></use>
                    </mask>
                    <use id="Mask" fill="#C6CFD7" xlink:href="#path-1"></use>
                    <path d="M0.5,113 C24.5965566,91 46.5427847,80 66.3386845,80 C96.0325341,80 75.9543012,80 105.146466,80 C124.60791,80 145.892421,91 169,113 L0.5,113 Z" fill="#E4E8EC" mask="url(#mask-2)"></path>
                    <path d="M118.894912,44.8390163 L86.8116408,18.6570175 C85.7374937,17.7809942 84.193295,17.7809942 83.1191479,18.6570175 L51.0358763,44.8390163 C49.8180535,45.8638826 49.6502361,47.6738809 50.6589727,48.9041194 C51.6677092,50.134358 53.4796191,50.329468 54.7283692,49.3423201 L58.7154449,46.089934 L58.7154449,79.090889 C58.7154449,80.6975466 60.0212785,82 61.6321059,82 L79.1320723,82 L79.1320723,64.5453341 L90.7987165,64.5453341 L90.7987165,82 L108.298683,82 C109.90951,82 111.215344,80.6975466 111.215344,79.090889 L111.215344,46.089934 L115.202419,49.3423201 C116.006977,50.0194008 117.114904,50.2115268 118.10137,49.8450285 C119.087836,49.4785301 119.799757,48.6102821 119.964152,47.5732098 C120.128547,46.5361375 119.719902,45.4911783 118.894912,44.8390163 L118.894912,44.8390163 Z" id="Path" fill="#E4E8EC" fill-rule="nonzero" mask="url(#mask-2)"></path>
                    <rect id="Rectangle" fill="#E4E8EC" mask="url(#mask-2)" x="64" y="19" width="6" height="21" rx="3"></rect>
                </g>
            </g>
        </g>
    </g>
</svg>