<svg width="20px" height="20px" viewBox="0 0 20 20" version="1.1" xmlns="http://www.w3.org/2000/svg" xmlns:xlink="http://www.w3.org/1999/xlink">
    <g id="Page-1" stroke="none" stroke-width="1" fill="none" fill-rule="evenodd">
        <g id="Tropical-Property-Liked" transform="translate(-426.000000, -627.000000)" fill="#FFFFFF">
            <g id="Property-1-Copy-12" transform="translate(199.000000, 544.000000)">
                <g id="Group-2" transform="translate(200.000000, 72.000000)">
                    <path d="M37,11 C42.5228475,11 47,15.4771525 47,21 C47,26.5228475 42.5228475,31 37,31 C31.4771525,31 27,26.5228475 27,21 C27,15.4771525 31.4771525,11 37,11 Z M41.2600599,16.3273272 L34.6849109,23.5599912 L32.6991176,21.6183267 C32.3042304,21.2322147 31.6711053,21.2393284 31.2849933,21.6342157 C30.8988813,22.029103 30.9059951,22.662228 31.3008824,23.04834 L34.0281551,25.7150067 C34.4332303,26.1110802 35.0861212,26.0918736 35.4672128,25.6726728 L42.7399401,17.6726728 C43.111447,17.2640152 43.0813304,16.6315669 42.6726728,16.2600599 C42.2640152,15.888553 41.6315669,15.9186696 41.2600599,16.3273272 Z" id="Combined-Shape"></path>
                </g>
            </g>
        </g>
    </g>
</svg>